# xmcd
#
# Track frame offsets: 
#        300
#        16144
#        31553
#        46806
#        72358
#        95069
#        117601
#        137390
#        153701
#        176230
#        197781
#
# Disc length: 2983 seconds
#
# Revision: 2
# Processed by: cddbd v1.5.2PL0 Copyright (c) Steve Scherf et al.
# Submitted via: ExactAudioCopy v1.0b1
#
DISCID=950ba30b
DTITLE=Chris Thomas King - A Young Man's Blues
DYEAR=1991
DGENRE=Blues
TTITLE0=The Game
TTITLE1=Wanna Die With a Smile on My Face
TTITLE2=Help Us, Somebody
TTITLE3=Plaquemine Blues
TTITLE4=I'm Gonna Make It
TTITLE5=Simple
TTITLE6=Itch
TTITLE7=Sad, Sad World
TTITLE8=The Devil's Daughter
TTITLE9=Blood on the Dagger
TTITLE10=Valley of Dreams
EXTD=YEAR: 2002
EXTT0=
EXTT1=
EXTT2=
EXTT3=
EXTT4=
EXTT5=
EXTT6=
EXTT7=
EXTT8=
EXTT9=
EXTT10=
PLAYORDER=
